<?xml version="1.0" encoding="utf-8"?>
<!-- Generator: Adobe Illustrator 27.0.0, SVG Export Plug-In . SVG Version: 6.00 Build 0)  -->
<svg version="1.1" id="圖層_1" xmlns="http://www.w3.org/2000/svg" xmlns:xlink="http://www.w3.org/1999/xlink" x="0px" y="0px"
	 viewBox="0 0 30 30" style="enable-background:new 0 0 30 30;" xml:space="preserve">
<style type="text/css">
	.st0{fill:#827298;}
</style>
<path class="sharefill" d="M23.12,19.31c-1.21,0-2.28,0.56-3,1.42l-9.34-5.39c0.01-0.11,0.03-0.22,0.03-0.34c0-0.24-0.03-0.48-0.07-0.71
	l9.41-5.03c0.72,0.84,1.78,1.38,2.97,1.38c2.17,0,3.94-1.76,3.94-3.94s-1.76-3.94-3.94-3.94s-3.94,1.76-3.94,3.94
	c0,0.26,0.03,0.52,0.08,0.77l-9.38,5.02c-0.72-0.86-1.79-1.42-3-1.42c-2.17,0-3.94,1.76-3.94,3.94s1.76,3.94,3.94,3.94
	c1.33,0,2.51-0.67,3.22-1.68l9.16,5.29c-0.04,0.23-0.07,0.47-0.07,0.71c0,2.17,1.76,3.94,3.94,3.94s3.94-1.76,3.94-3.94
	C27.06,21.07,25.29,19.31,23.12,19.31z"/>
</svg>
