<svg width="30" height="30" viewBox="0 0 30 30" fill="none" xmlns="http://www.w3.org/2000/svg">
<circle className="OUO-1" cx="15" cy="15" r="15" fill="#D8B9C3"/>
<path d="M14.26 5.5H15.88V21.52C15.88 22.64 15.58 23.08 14.86 23.32C14.14 23.58 12.9 23.62 11 23.62C10.92 23.18 10.64 22.48 10.38 22.04C11.86 22.1 13.3 22.08 13.7 22.06C14.12 22.06 14.26 21.92 14.26 21.52V5.5ZM19.1 10.6L20.54 10.04C22.28 12.86 23.98 16.52 24.5 18.94L22.9 19.58C22.42 17.22 20.8 13.46 19.1 10.6ZM9.02 10.18L10.7 10.46C10.04 13.4 8.88 17.02 7.06 19.26C6.7 18.98 6.04 18.62 5.64 18.46C7.42 16.34 8.52 12.88 9.02 10.18Z" fill="white"/>
</svg>
